<?xml version="1.0" encoding="UTF-8"?><svg id="Arrow" xmlns="http://www.w3.org/2000/svg" viewBox="0 0 446 572"><defs><style>.cls-1{fill:#fff;stroke-width:0px;}</style></defs><g id="Arrow_06"><path class="cls-1" d="M319.02,373.9c27.4.09,47.29,11.7,48.22,17.32.02-1.29,1.66-3.06,4.07-4.88,25.11-.17,46.58-.46,74.7-.73-48.09-55.38-122.99-143.67-162.42-189.76-5.7-7.4-38.78-44.02-48.46-57.57-4.26-11.16-8.02-24.38-10.23-37.4,2.21,14.72,5.91,29.86,12.22,41.82,9.55,11.65,40.6,48.88,45.1,54.32,35.8,43.27,107.44,128.55,151.49,182.88-18.81-.21-33.45-.47-49.39-.63.6-.22,1.18-.42,1.72-.58,2.68-2.25,5.36-4.75,8.95-4.79h25.8l-187.3-222.36c-3.98-6.09-3.67-13.39-5.49-22.36-1.99-13.08-4.96-30.33-5.01-44.25-.05,13.91-3.02,31.16-5.01,44.25-1.82,8.97-1.51,16.27-5.49,22.36L25.21,373.9h25.8c3.59.03,6.28,2.53,8.95,4.79.54.16,1.12.36,1.72.58-15.93.16-30.58.42-49.39.63,44.05-54.33,115.69-139.61,151.49-182.88,4.49-5.44,35.55-42.67,45.1-54.32,6.31-11.96,10.01-27.1,12.22-41.82-2.21,13.02-5.97,26.25-10.23,37.4-9.69,13.55-42.76,50.17-48.46,57.57C122.99,241.94,48.09,330.24,0,385.61c28.11.27,49.58.56,74.7.73,2.41,1.82,4.05,3.59,4.07,4.88.92-5.62,20.82-17.23,48.22-17.32h49.25c32.04,0,44.5,26.15,45.97,38.05-1.08,10.83-3.97,34-9.25,35.32h-10.51c-9.33-1.97-23.79-12.82-30.32-17.73.69.63,2.63,2.73,4.68,5.27-8.35.16-20.81.39-38.47.73,24.63,27.47,53.31,60.78,77.39,88.03,4.99,11.73,6.48,33.6,7.28,48.43-.74-15.15-2.37-37.25-7.05-49.39-20.16-25.23-45.03-55.11-65.31-81.35,13.52.28,23.68.5,31.08.66,1.49,2.77,1.92,4.98-.17,5.34h-18.02l54.22,64.35c4.09,17.83,4.37,40.74,5.25,60.39.88-19.65,1.16-42.56,5.25-60.39l54.22-64.35h-18.02c-2.09-.36-1.66-2.58-.17-5.34,7.4-.16,17.57-.38,31.08-.66-20.27,26.24-45.14,56.12-65.31,81.35-4.69,12.13-6.31,34.24-7.05,49.39.8-14.83,2.3-36.7,7.28-48.43,24.08-27.25,52.76-60.56,77.39-88.03-17.66-.34-30.12-.57-38.47-.73,2.05-2.55,3.99-4.64,4.68-5.27-6.52,4.9-20.98,15.76-30.32,17.73h-10.51c-5.29-1.32-8.17-24.49-9.25-35.32,1.47-11.91,13.93-38.05,45.97-38.05h49.25ZM247.59,463.47l-24.59,29.19-24.59-29.19h49.18ZM226.16,447.26h-6.31c2.18-3.75,2.96-9.83,3.16-16.33.2,6.5.98,12.58,3.16,16.33ZM223,387.82c0-5.15-9.45-13.92-14.7-13.92h29.4c-5.25,0-14.7,8.77-14.7,13.92ZM223,357.68H60.07l162.93-193.41,162.93,193.41h-162.93Z"/><path class="cls-1" d="M367.28,395.46c-2.36,3.49-9.24,6.17-9.24,6.17,0,0,9.24,13.23,9.24,15.06,0-1.83,9.24-15.06,9.24-15.06,0,0-6.87-2.68-9.24-6.17Z"/><path class="cls-1" d="M224.89,100.87c-.81-5.43-1.43-10.81-1.89-15.95.31,5.17.97,10.54,1.89,15.95Z"/><path class="cls-1" d="M289.09,419.52c.93-.79,11.82-14.05,12.91-15.06-1.11.97-19.86,14.15-20.86,15.06-.01,1.77-1.06,3.99-2.94,6.17,2.88-2.19,8.61-5.22,10.9-6.17Z"/><path class="cls-1" d="M223,81.81c.94-7.33,3.59-12.63,7.69-14.65-.85-17.66-5.75-49.55-7.69-67.16-1.95,17.61-6.84,49.5-7.69,67.16,4.11,2.02,6.75,7.32,7.69,14.65Z"/><path class="cls-1" d="M78.72,395.46c-2.36,3.49-9.24,6.17-9.24,6.17,0,0,9.24,13.23,9.24,15.06,0-1.83,9.24-15.06,9.24-15.06,0,0-6.87-2.68-9.24-6.17Z"/><path class="cls-1" d="M221.11,100.87c.92-5.41,1.58-10.78,1.89-15.95-.46,5.14-1.08,10.51-1.89,15.95Z"/><path class="cls-1" d="M156.91,419.52c2.29.95,8.02,3.98,10.9,6.17-1.89-2.18-2.93-4.41-2.94-6.17-1.01-.91-19.76-14.09-20.86-15.06,1.09,1.01,11.98,14.27,12.91,15.06Z"/></g></svg>