<?xml version="1.0" encoding="UTF-8"?><svg id="ProgressBar" xmlns="http://www.w3.org/2000/svg" viewBox="0 0 1292 92"><defs><style>.cls-1{fill:#fff;}</style></defs><g id="ProgressBar_03"><path class="cls-1" d="M1274.97,28.92v-.52c-15.64,0-28.31-12.71-28.31-28.4H45.34c0,15.68-12.67,28.4-28.31,28.4v.52h0c0,9.43-7.62,17.08-17.03,17.08h0c9.41,0,17.03,7.65,17.03,17.08h0v.52c15.64,0,28.31,12.71,28.31,28.4h1201.32c0-15.68,12.68-28.4,28.31-28.4v-.52c0-9.43,7.62-17.08,17.03-17.08h0c-9.4,0-17.03-7.65-17.03-17.08ZM1266.1,55.78c-13.39,3.3-23.95,13.89-27.24,27.32H53.14c-3.29-13.43-13.85-24.02-27.24-27.32v-19.56c13.39-3.3,23.95-13.89,27.24-27.32h1185.72c3.29,13.43,13.85,24.02,27.24,27.32v19.56Z"/></g></svg>