<?xml version="1.0" encoding="UTF-8"?><svg id="Tab" xmlns="http://www.w3.org/2000/svg" viewBox="0 0 1284 240"><defs><style>.cls-1{fill:#fff;stroke-width:0px;}</style></defs><g id="Tab_08"><path class="cls-1" d="M693.1,31.62c-41.05,1.86-560.38-4.5-587.58,4.02h650.23c0-2.22-52.72-4.02-62.65-4.02Z"/><path class="cls-1" d="M1064.51,8.52c-34.46,0-59.32-5.82-59.32-8.41,0,2.59-24.86,8.41-59.32,8.41h118.64Z"/><path class="cls-1" d="M693.1,10.14c9.92,0,62.65-1.8,62.65-4.02H105.52c27.2,8.53,546.53,2.16,587.58,4.02Z"/><path class="cls-1" d="M1283.82,119.6c-8.55-21.36-12.47-42.16-26.34-62.4-16.06-25.09-45.64-44.9-76.13-49.52-29.46-3.28-88.13-1.88-109.62.84h60.85c19.69.2,46.14-1.62,64.78,5.56,44.87,14.17,77.14,58.82,76.58,105.91.56,47.09-31.71,91.74-76.58,105.91-18.64,7.19-45.09,5.36-64.78,5.56h-60.85c21.49,2.72,80.16,4.12,109.62.84,30.49-4.61,60.07-24.43,76.13-49.52,13.87-20.23,17.79-41.04,26.34-62.4l.18-.4-.18-.4Z"/><path class="cls-1" d="M1166.57,222.26c12.03-.43,23.98-3.08,35.12-7.67,40.83-16.37,62.54-55.38,62.74-94.59-.2-39.21-21.91-78.22-62.74-94.59-11.13-4.58-23.08-7.24-35.12-7.67-60.88-2.58-278.1,7.48-318.42-11.9-37.05,23.84-701.97,7.08-762.33,11.81C37.4,16.51,0,9.05,0,0v47.27c0-13.05,58.61-23.64,130.9-23.64,75.53,4.96,664.96-12.44,717.24,12.01,9.26-13.7,199.94-12.62,244.69-11.98v-.03c21.26.98,65.67-1.81,86.13,1.42,45.08,7.01,80.61,49.29,79.88,94.95.73,45.66-34.8,87.95-79.88,94.95-20.47,3.23-64.88.44-86.13,1.42v-.03c-44.75.64-235.43,1.72-244.69-11.98-52.28,24.45-641.71,7.05-717.24,12.01C58.61,216.37,0,205.78,0,192.73v47.27c0-9.05,37.4-16.51,85.81-17.65,60.36,4.73,725.28-12.03,762.33,11.81,40.32-19.37,257.55-9.32,318.42-11.9Z"/><path class="cls-1" d="M693.1,208.38c9.92,0,62.65-1.8,62.65-4.02H105.52c27.2,8.53,546.53,2.16,587.58,4.02Z"/><path class="cls-1" d="M945.87,231.48c34.46,0,59.32,5.82,59.32,8.41,0-2.59,24.86-8.41,59.32-8.41h-118.64Z"/><path class="cls-1" d="M693.1,229.86c-41.05,1.86-560.38-4.5-587.58,4.02h650.23c0-2.22-52.72-4.02-62.65-4.02Z"/></g></svg>